<svg width="230" height="230" xmlns="http://www.w3.org/2000/svg" stroke="null">
 <g stroke="null">
  <title stroke="null">Layer 1</title>
  <ellipse stroke="#000" fill="#d5c2bf" stroke-width="0" cx="108.80047" cy="136.48287" id="svg_35" rx="93" ry="90.6378"/>
  <ellipse fill="#f4e6df" cx="115.45438" cy="113.39035" id="svg_6" rx="100" ry="100" stroke-width="0" stroke="#000"/>
  <ellipse fill="#d5c2bf" stroke-width="0" cx="116.09974" cy="114.75748" id="svg_8" rx="93" ry="93" stroke="#000"/>
  <ellipse fill="#d6c2c2" stroke="#000" stroke-width="0" cx="387.49761" cy="91.45749" id="svg_9"/>
  <ellipse stroke="#000" fill="#f4e6df" cx="113.1322" cy="123.84146" id="svg_12" rx="90.50167" ry="89.07943" stroke-width="0"/>
  <rect stroke="#000" fill="#d5c2bf" stroke-width="0" x="112.00783" y="28.09327" width="4" height="11.51846" id="svg_1"/>
  <rect stroke="#000" fill="#34b2eb" stroke-width="0" x="113.34116" y="26.4266" width="4" height="11.51846" id="svg_13"/>
  <rect transform="rotate(30 153.781 46.642)" fill="#d5c2bf" stroke-width="0" x="151.7809" y="40.64202" width="4" height="12" id="svg_20" stroke="#000"/>
  <rect fill="#34b2eb" stroke-width="0" x="153.11423" y="39.30869" width="4" height="12" id="svg_17" stroke="#000" transform="rotate(30 155.114 45.3087)"/>
  <rect transform="rotate(60 184.867 75.1705)" fill="#d5c2bf" stroke-width="0" x="182.86675" y="69.17058" width="4" height="12" id="svg_19" stroke="#000"/>
  <rect fill="#34b2eb" stroke-width="0" x="184.20008" y="67.83725" width="4" height="12" id="svg_18" stroke="#000" transform="rotate(60 186.2 73.8372)"/>
  <rect transform="rotate(90 195.94 116.32)" fill="#d5c2bf" stroke-width="0" x="193.94031" y="110.32004" width="4" height="12" id="svg_16" stroke="#000"/>
  <rect fill="#34b2eb" stroke-width="0" x="195.27364" y="108.98671" width="4" height="12" id="svg_21" stroke="#000" transform="rotate(90 197.273 114.987)"/>
  <rect fill="#d5c2bf" stroke-width="0" x="111.97777" y="184.921" width="4" height="12" id="svg_11" stroke="#000"/>
  <rect fill="#2aafe5" stroke-width="0" x="113.3111" y="183.58767" width="4" height="12" id="svg_25" stroke="#000"/>
  <rect transform="rotate(120 178.091 154.366)" fill="#d5c2bf" stroke-width="0" x="176.0911" y="148.36665" width="4" height="12" id="svg_15" stroke="#000"/>
  <rect fill="#34b2eb" stroke-width="0" x="177.42443" y="147.03332" width="4" height="12" id="svg_28" stroke="#000" transform="rotate(120 179.424 153.033)"/>
  <rect transform="rotate(150 151.779 177.403)" fill="#d5c2bf" stroke-width="0" x="149.77883" y="171.40358" width="4" height="12" id="svg_14" stroke="#000"/>
  <rect fill="#34b2eb" stroke-width="0" x="151.11216" y="170.07025" width="4" height="12" id="svg_29" stroke="#000" transform="rotate(150 153.112 176.07)"/>
  <rect transform="rotate(-150 80.7394 183.606)" fill="#d5c2bf" stroke-width="0" x="78.73933" y="177.60623" width="4" height="12" id="svg_10" stroke="#000"/>
  <rect fill="#34b2eb" stroke-width="0" x="80.07266" y="176.2729" width="4" height="12" id="svg_30" stroke="#000" transform="rotate(-150 82.0727 182.273)"/>
  <rect transform="rotate(-120 49.0328 154.86)" fill="#d5c2bf" stroke-width="0" x="47.03273" y="148.86085" width="4" height="12" id="svg_7" stroke="#000"/>
  <rect fill="#34b2eb" stroke-width="0" x="48.36606" y="147.52752" width="4" height="12" id="svg_31" stroke="#000" transform="rotate(-120 50.3661 153.527)"/>
  <rect transform="rotate(90 34.7956 116.319)" fill="#d5c2bf" stroke-width="0" x="32.79556" y="110.32005" width="4" height="12" id="svg_5" stroke="#000"/>
  <rect fill="#34b2eb" stroke-width="0" x="34.12889" y="108.98672" width="4" height="12" id="svg_32" stroke="#000" transform="rotate(90 36.1289 114.986)"/>
  <rect transform="rotate(-60 43.1523 73.259)" fill="#d5c2bf" stroke-width="0" x="41.15236" y="67.25903" width="4" height="12" id="svg_4" stroke="#000"/>
  <rect fill="#34b2eb" stroke-width="0" x="42.81903" y="65.9257" width="4" height="12" id="svg_33" stroke="#000" transform="rotate(-60 44.819 71.9257)"/>
  <rect transform="rotate(-30 70.2304 45.3659)" fill="#d5c2bf" stroke-width="0" x="68.23038" y="39.36595" width="4" height="12" id="svg_3" stroke="#000"/>
  <rect fill="#34b2eb" stroke-width="0" x="69.56371" y="38.03262" width="4" height="12" id="svg_34" stroke="#000" transform="rotate(-30 71.5637 44.0326)"/>
 </g>

</svg>